<svg xmlns="http://www.w3.org/2000/svg" viewBox="0 0 128 112" fill="none" role="img" aria-label="訪問看護ステーションSHARK ロゴ">
  <!-- shark body -->
  <path d="M20 58 C26 43 43 35 61 35 C76 35 88 38 100 43 C92 49 83 53 72 55 C54 59 36 61 26 61 C21 61 16 60 20 58 Z" fill="#88c6d2"/>
  <!-- dorsal fin -->
  <path d="M60 35 C65 23 73 15 80 16 C80 25 84 34 93 41 C82 39 71 36 60 35 Z" fill="#77b8c5"/>
  <!-- tail -->
  <path d="M98 42 C107 38 115 29 121 21 C118 31 115 40 113 45 C117 50 120 56 122 61 C114 55 106 48 100 46 Z" fill="#77b8c5"/>
  <!-- pectoral fin -->
  <path d="M47 58 C45 69 46 79 50 83 C56 76 61 66 63 57 Z" fill="#6fb2c0"/>
  <!-- gills -->
  <path d="M43 45 C42 50 42 55 43 60 M49 45 C48 50 48 55 49 60" stroke="#5da3b2" stroke-width="1.8" stroke-linecap="round"/>
  <!-- mouth -->
  <path d="M23 57 C29 61 35 61 41 57" stroke="#5da3b2" stroke-width="2" stroke-linecap="round" fill="none"/>
  <!-- eye -->
  <circle cx="33" cy="50" r="3" fill="#38585f"/>
  <!-- waves -->
  <path d="M22 86 C32 80 42 80 52 86 C62 92 72 92 82 86 C90 81 98 81 107 86" stroke="#a9caa2" stroke-width="4.5" stroke-linecap="round" fill="none"/>
  <path d="M30 99 C40 93 50 93 60 99 C70 105 80 105 90 99 C97 94 104 94 111 99" stroke="#c3ddba" stroke-width="4.5" stroke-linecap="round" fill="none"/>
</svg>
